{"glyphs":{":":{"x_min":0,"x_max":241,"ha":241,"o":"m 181 460 l 181 339 l 60 339 l 60 460 z m 181 122 l 181 0 l 60 0 l 60 122 z"},"$":{"x_min":0,"x_max":586,"ha":586,"o":"m 322 -85 l 256 -85 l 256 5 q 74 20 23 181 l 128 205 q 157 102 256 94 l 256 287 q 126 317 87 363 q 48 408 48 472 q 48 636 256 662 l 256 732 l 322 732 l 322 662 q 474 642 514 512 l 415 491 q 389 566 322 572 l 322 401 q 417 374 451 359 q 484 345 510 302 q 537 260 537 203 q 537 122 482 68 q 427 14 322 5 z m 256 572 q 213 571 185 551 q 156 530 156 489 q 156 421 256 408 z m 322 94 q 368 95 399 121 q 430 147 430 190 q 430 261 322 281 z"},"?":{"x_min":0,"x_max":501,"ha":501,"o":"m 293 191 l 198 191 l 198 257 q 198 291 211 310 q 225 329 270 364 q 339 417 339 477 q 339 521 312 548 q 285 574 242 574 q 141 574 123 435 l 17 454 q 26 558 94 617 q 161 677 254 677 q 348 677 409 621 q 470 566 470 483 q 470 442 453 406 q 436 369 415 348 q 393 328 324 277 q 304 263 299 250 q 293 236 293 191 z m 312 122 l 312 0 l 198 0 l 198 122 z"},"<":{"x_min":0,"x_max":586,"ha":586,"o":"m 500 596 l 500 484 l 187 333 l 500 181 l 500 69 l 67 285 l 67 381 z"},"'":{"x_min":0,"x_max":214,"ha":214,"o":"m 145 399 l 68 399 l 52 667 l 162 667 z"},"=":{"x_min":0,"x_max":586,"ha":586,"o":"m 541 451 l 541 358 l 46 358 l 46 451 z m 541 305 l 541 212 l 46 212 l 46 305 z"},"a":{"x_min":0,"x_max":541,"ha":541,"o":"m 489 0 l 383 0 q 369 45 366 100 q 321 -10 199 -10 q 125 -10 80 33 q 36 76 36 142 q 36 312 334 312 q 346 312 366 311 l 366 348 q 366 425 261 425 q 160 425 146 348 l 51 362 q 59 424 115 464 q 170 503 276 503 q 333 503 369 494 q 405 484 430 462 q 455 439 465 412 q 474 386 474 322 l 474 100 q 474 51 489 0 z m 366 251 q 150 251 150 148 q 150 117 172 95 q 193 74 237 74 q 301 74 333 114 q 366 154 366 206 z"},"L":{"x_min":0,"x_max":499,"ha":499,"o":"m 483 0 l 73 0 l 73 667 l 200 667 l 200 109 l 483 109 z"},"3":{"x_min":0,"x_max":586,"ha":586,"o":"m 210 294 l 210 389 l 271 389 q 326 389 363 414 q 399 438 399 486 q 399 534 368 558 q 337 582 289 582 q 190 582 154 485 l 44 504 q 63 580 130 628 q 197 677 292 677 q 386 677 453 628 q 520 580 520 498 q 520 438 484 395 q 448 352 395 348 q 460 338 500 293 q 540 249 540 187 q 540 101 471 45 q 402 -10 287 -10 q 181 -10 112 44 q 43 98 25 167 l 139 195 q 173 84 286 84 q 345 84 381 114 q 417 144 417 187 q 417 229 385 262 q 354 294 292 294 z"},";":{"x_min":0,"x_max":241,"ha":241,"o":"m 181 460 l 181 339 l 60 339 l 60 460 z m 181 125 l 181 13 l 103 -143 l 60 -143 l 118 0 l 60 0 l 60 125 z"},"J":{"x_min":0,"x_max":372,"ha":372,"o":"m 305 667 l 305 207 q 305 92 255 41 q 206 -10 97 -10 q 35 -10 0 0 l 0 97 q 55 93 77 93 q 137 93 159 115 q 181 138 181 207 l 181 667 z"},"V":{"x_min":0,"x_max":541,"ha":541,"o":"m 330 0 l 208 0 l 2 667 l 129 667 l 282 156 l 438 667 l 538 667 z"},"\"":{"x_min":0,"x_max":378,"ha":378,"o":"m 145 399 l 68 399 l 52 667 l 162 667 z m 310 399 l 233 399 l 217 667 l 326 667 z"},"7":{"x_min":0,"x_max":586,"ha":586,"o":"m 61 667 l 534 667 l 534 582 q 411 422 371 305 q 331 188 322 0 l 185 0 q 202 324 432 563 l 51 563 z"},"S":{"x_min":0,"x_max":571,"ha":571,"o":"m 3 161 l 120 186 q 141 86 281 86 q 345 86 380 112 q 414 137 414 175 q 414 202 398 225 q 383 249 332 262 l 204 295 q 139 312 107 334 q 76 355 57 395 q 39 435 39 479 q 39 569 105 623 q 171 677 275 677 q 361 677 428 639 q 496 602 515 533 l 400 504 q 374 580 277 580 q 221 580 192 557 q 162 533 162 497 q 162 440 255 417 l 368 389 q 471 363 506 312 q 542 262 542 201 q 542 103 468 46 q 394 -10 276 -10 q 177 -10 102 31 q 28 73 3 161 z"},"}":{"x_min":0,"x_max":293,"ha":293,"o":"m 188 250 q 128 280 128 366 l 128 511 q 128 567 107 579 q 85 591 31 591 l 31 666 l 74 667 q 151 667 184 633 q 217 600 217 526 l 217 371 q 217 323 233 306 q 249 288 274 283 l 274 212 q 217 200 217 130 l 217 -33 q 217 -104 183 -136 q 148 -167 72 -167 q 58 -167 31 -166 l 31 -91 q 92 -91 110 -76 q 128 -60 128 -13 l 128 136 q 128 169 138 199 q 147 229 188 250 z"},"Z":{"x_min":0,"x_max":533,"ha":533,"o":"m 513 104 l 513 0 l 20 0 l 20 95 l 361 571 l 44 571 l 44 667 l 503 667 l 503 571 l 166 104 z"},"x":{"x_min":0,"x_max":441,"ha":441,"o":"m 441 0 l 314 0 l 210 180 l 96 0 l 0 0 l 164 254 l 22 493 l 149 493 l 230 348 l 323 493 l 416 493 l 277 279 z"},")":{"x_min":0,"x_max":293,"ha":293,"o":"m 27 667 l 93 667 q 262 482 262 241 q 262 109 205 -5 q 148 -119 93 -167 l 27 -167 q 107 -55 137 42 q 167 140 167 251 q 167 476 27 667 z"},"&":{"x_min":0,"x_max":717,"ha":717,"o":"m 597 404 l 697 387 q 676 244 579 135 q 613 98 629 90 q 646 82 668 82 q 678 82 697 84 l 697 -9 l 651 -10 q 605 -10 576 3 q 547 16 501 61 q 401 -10 284 -10 q 172 -10 102 50 q 32 110 32 199 q 32 255 64 306 q 97 356 205 404 q 147 473 147 531 q 147 596 196 636 q 245 677 321 677 q 399 677 449 638 q 499 599 499 531 q 499 484 465 440 q 431 396 369 371 l 513 206 q 582 293 597 404 z m 314 443 q 399 479 399 531 q 399 560 378 576 q 358 592 330 592 q 302 592 281 575 q 259 559 259 533 q 259 490 314 443 z m 263 331 q 164 286 164 206 q 164 152 202 120 q 241 87 300 87 q 373 87 438 135 z"},"_":{"x_min":0,"x_max":500,"ha":500,"o":"m 0 -52 l 500 -52 l 500 -154 l 0 -154 z"},"v":{"x_min":0,"x_max":444,"ha":444,"o":"m 438 493 l 271 0 l 178 0 l 7 493 l 123 493 l 238 159 l 351 493 z"},"O":{"x_min":0,"x_max":644,"ha":644,"o":"m 319 -10 q 186 -10 112 89 q 38 189 38 335 q 38 481 117 579 q 195 677 324 677 q 454 677 530 579 q 605 481 605 334 q 605 180 527 85 q 448 -10 319 -10 z m 320 86 q 385 86 430 140 q 475 194 475 335 q 475 450 438 515 q 400 580 322 580 q 168 580 168 332 q 168 211 207 149 q 247 86 320 86 z"},"(":{"x_min":0,"x_max":293,"ha":293,"o":"m 266 -167 l 200 -167 q 32 17 32 259 q 32 391 88 504 q 145 618 200 667 l 266 667 q 186 555 156 457 q 125 360 125 249 q 125 136 164 27 q 202 -82 266 -167 z"},"C":{"x_min":0,"x_max":579,"ha":579,"o":"m 446 231 l 557 219 q 546 119 480 54 q 413 -10 305 -10 q 213 -10 156 36 q 100 82 69 160 q 38 239 38 333 q 38 486 110 581 q 183 677 309 677 q 408 677 474 616 q 540 555 557 441 l 446 429 q 415 580 310 580 q 243 580 205 517 q 168 455 168 335 q 168 214 208 153 q 248 91 314 91 q 367 91 404 132 q 441 174 446 231 z"},"W":{"x_min":0,"x_max":883,"ha":883,"o":"m 874 667 l 695 0 l 569 0 l 437 490 l 316 0 l 192 0 l 10 667 l 138 667 l 267 181 l 387 667 l 508 667 l 641 181 l 768 667 z"},"A":{"x_min":0,"x_max":603,"ha":603,"o":"m 596 0 l 468 0 l 415 159 l 158 159 l 106 0 l 3 0 l 225 667 l 373 667 z m 382 255 l 285 552 l 188 255 z"},"f":{"x_min":0,"x_max":316,"ha":316,"o":"m 191 0 l 84 0 l 84 407 l 11 407 l 11 493 l 84 493 l 84 518 q 84 590 119 634 q 154 678 261 678 q 277 678 301 677 l 301 589 q 280 591 272 591 q 231 591 214 580 q 198 569 195 554 q 191 539 191 493 l 301 493 l 301 407 l 191 407 z"},"Q":{"x_min":0,"x_max":644,"ha":644,"o":"m 578 -36 l 578 -136 q 520 -141 509 -141 q 361 -141 361 -11 q 324 -13 316 -13 q 183 -13 110 85 q 38 184 38 333 q 38 480 113 579 q 187 677 322 677 q 420 677 478 631 q 536 585 571 510 q 605 436 605 335 q 605 121 463 28 q 440 14 440 3 q 440 -14 455 -26 q 470 -39 496 -39 q 514 -39 548 -37 q 558 -36 578 -36 z m 318 87 q 475 87 475 333 q 475 464 433 522 q 391 580 323 580 q 168 580 168 327 q 168 87 318 87 z"},"w":{"x_min":0,"x_max":697,"ha":697,"o":"m 687 493 l 542 0 l 442 0 l 353 346 l 265 0 l 162 0 l 10 493 l 128 493 l 225 162 l 310 493 l 411 493 l 498 162 l 593 493 z"},"-":{"x_min":0,"x_max":241,"ha":241,"o":"m 243 299 l 243 208 l -2 208 l -2 299 z"},"E":{"x_min":0,"x_max":537,"ha":537,"o":"m 506 0 l 73 0 l 73 667 l 502 667 l 502 567 l 193 567 l 193 387 l 441 387 l 441 290 l 193 290 l 193 104 l 506 104 z"},"s":{"x_min":0,"x_max":454,"ha":454,"o":"m 7 113 l 111 133 q 135 73 217 73 q 320 73 320 134 q 320 154 304 167 q 288 179 266 184 l 176 201 q 27 229 27 347 q 27 412 74 458 q 122 503 215 503 q 372 503 406 389 l 307 369 q 292 424 218 424 q 129 424 129 369 q 129 330 201 315 l 307 293 q 431 268 431 152 q 431 70 367 30 q 304 -10 216 -10 q 141 -10 83 20 q 24 51 7 113 z"},">":{"x_min":0,"x_max":586,"ha":586,"o":"m 86 69 l 86 182 l 400 333 l 87 485 l 86 596 l 520 380 l 520 285 z"},"l":{"x_min":0,"x_max":245,"ha":245,"o":"m 178 0 l 66 0 l 66 667 l 178 667 z"},"8":{"x_min":0,"x_max":586,"ha":586,"o":"m 169 329 q 52 383 52 489 q 52 571 117 624 q 182 677 298 677 q 404 677 468 629 q 532 582 532 504 q 532 409 414 359 q 559 297 559 184 q 559 100 486 45 q 414 -10 291 -10 q 161 -10 94 41 q 28 92 28 169 q 28 279 169 329 z m 331 394 q 423 432 423 500 q 423 544 385 569 q 348 593 298 593 q 247 593 210 571 q 173 549 173 507 q 173 464 213 441 q 253 418 331 394 z m 252 290 q 203 272 173 241 q 144 210 144 175 q 144 139 181 108 q 218 77 296 77 q 360 77 398 102 q 435 127 435 167 q 435 200 404 226 q 373 251 252 290 z"},"\\":{"x_min":0,"x_max":479,"ha":479,"o":"m 30 667 l 102 667 l 536 -167 l 467 -167 z"},"e":{"x_min":0,"x_max":524,"ha":524,"o":"m 380 157 l 481 144 q 461 77 405 33 q 348 -10 263 -10 q 160 -10 98 59 q 35 127 35 245 q 35 357 98 430 q 161 503 269 503 q 375 503 432 431 q 490 359 490 246 l 489 233 l 151 233 q 151 183 160 152 q 170 122 198 100 q 227 77 269 77 q 352 77 380 157 z m 374 305 q 373 358 342 392 q 310 425 264 425 q 218 425 187 394 q 156 362 151 305 z"},"b":{"x_min":0,"x_max":539,"ha":539,"o":"m 117 0 l 67 0 l 67 667 l 178 667 l 178 426 q 210 481 242 499 q 273 516 316 516 q 397 516 450 447 q 503 378 503 256 q 503 146 451 68 q 398 -10 300 -10 q 202 -10 147 81 z m 178 210 q 178 145 207 113 q 235 82 281 82 q 325 82 354 118 q 384 154 386 259 q 386 336 359 378 q 333 420 284 420 q 238 420 208 384 q 178 349 178 284 z"},"%":{"x_min":0,"x_max":771,"ha":771,"o":"m 187 301 q 116 301 74 356 q 32 411 32 490 q 32 568 74 620 q 117 673 188 673 q 268 673 306 618 q 344 562 344 492 q 344 404 298 353 q 252 301 187 301 z m 187 374 q 254 374 254 491 q 254 602 189 602 q 124 602 124 491 q 124 374 187 374 z m 629 667 l 217 0 l 143 0 l 557 667 z m 581 -6 q 515 -6 471 45 q 428 96 428 174 q 428 263 476 315 q 524 366 587 366 q 646 366 693 318 q 740 271 740 174 q 740 93 695 43 q 649 -6 581 -6 z m 584 65 q 619 65 635 98 q 651 132 651 175 q 651 238 635 265 q 620 292 588 292 q 519 292 519 179 q 519 65 584 65 z"},"m":{"x_min":0,"x_max":870,"ha":870,"o":"m 803 0 l 687 0 l 687 307 q 687 403 602 403 q 552 403 523 367 q 493 331 493 259 l 493 0 l 375 0 l 375 307 q 375 404 295 404 q 247 404 214 365 q 181 326 181 259 l 181 0 l 66 0 l 66 493 l 174 493 l 174 388 q 227 503 339 503 q 448 503 480 388 q 540 503 645 503 q 716 503 760 459 q 803 415 803 349 z"},"#":{"x_min":0,"x_max":586,"ha":586,"o":"m 562 485 l 545 391 l 448 391 l 430 289 l 527 289 l 511 195 l 413 195 l 378 0 l 288 0 l 322 195 l 216 195 l 182 0 l 90 0 l 125 196 l 24 196 l 41 289 l 143 289 l 161 391 l 59 391 l 76 485 l 177 485 l 209 667 l 300 667 l 268 485 l 373 485 l 405 667 l 496 667 l 463 485 z m 356 391 l 251 391 l 233 289 l 338 289 z"},",":{"x_min":0,"x_max":241,"ha":241,"o":"m 181 125 l 181 13 l 103 -143 l 60 -143 l 118 0 l 60 0 l 60 125 z"},"n":{"x_min":0,"x_max":542,"ha":542,"o":"m 475 0 l 364 0 l 364 308 q 364 357 341 382 q 319 406 287 406 q 244 406 211 368 q 178 330 178 253 l 178 0 l 67 0 l 67 493 l 168 493 l 168 379 q 222 503 318 503 q 383 503 429 462 q 475 421 475 318 z"},"h":{"x_min":0,"x_max":542,"ha":542,"o":"m 475 0 l 364 0 l 364 323 q 364 375 342 396 q 319 417 290 417 q 242 417 210 380 q 178 342 178 256 l 178 0 l 66 0 l 66 667 l 178 667 l 178 407 q 219 513 323 513 q 475 513 475 339 z"},"z":{"x_min":0,"x_max":418,"ha":418,"o":"m 396 86 l 396 0 l 23 0 l 23 86 l 261 407 l 46 407 l 46 493 l 396 493 l 396 415 l 152 86 z"},"B":{"x_min":0,"x_max":607,"ha":607,"o":"m 73 0 l 73 667 l 333 667 q 399 667 442 653 q 486 639 518 596 q 549 552 549 494 q 549 438 517 398 q 485 357 428 346 q 499 333 535 289 q 571 244 571 182 q 571 105 520 52 q 470 0 365 0 z m 187 387 l 333 387 q 378 387 405 414 q 431 440 431 482 q 431 528 401 550 q 371 571 331 571 l 187 571 z m 187 100 l 342 100 q 392 100 420 126 q 449 152 449 196 q 449 238 420 265 q 391 292 343 292 l 187 292 z"},"K":{"x_min":0,"x_max":614,"ha":614,"o":"m 597 0 l 463 0 l 322 339 l 193 168 l 193 0 l 73 0 l 73 667 l 193 667 l 193 316 q 216 352 227 366 l 448 667 l 569 667 l 411 447 z"},"R":{"x_min":0,"x_max":643,"ha":643,"o":"m 593 0 l 466 0 l 362 274 l 193 274 l 193 0 l 73 0 l 73 667 l 362 667 q 483 667 540 612 q 596 558 596 471 q 596 343 476 294 z m 193 370 l 343 370 q 408 370 439 397 q 471 425 471 473 q 471 517 440 544 q 409 571 353 571 l 193 571 z"},"T":{"x_min":0,"x_max":483,"ha":483,"o":"m 306 0 l 177 0 l 177 563 l 0 563 l 0 667 l 483 667 l 483 563 l 306 563 z"},"P":{"x_min":0,"x_max":599,"ha":599,"o":"m 193 0 l 73 0 l 73 667 l 346 667 q 463 667 519 608 q 576 549 576 469 q 576 377 515 321 q 454 264 360 264 l 193 264 z m 193 367 l 335 367 q 391 367 420 395 q 450 422 450 467 q 450 508 423 538 q 396 567 325 567 l 193 567 z"},"|":{"x_min":0,"x_max":500,"ha":500,"o":"m 193 667 l 307 667 l 307 -167 l 193 -167 z"},"t":{"x_min":0,"x_max":322,"ha":322,"o":"m 295 87 l 295 0 q 246 -11 218 -11 q 173 -11 141 7 q 109 25 94 56 q 79 87 79 151 l 79 407 l 18 407 l 18 493 l 85 493 l 96 622 l 187 630 l 187 493 l 286 493 l 286 407 l 187 407 l 187 166 q 187 120 204 103 q 221 86 268 86 q 281 86 295 87 z"},"M":{"x_min":0,"x_max":801,"ha":801,"o":"m 727 0 l 604 0 l 604 583 l 420 0 l 357 0 l 171 583 l 171 0 l 73 0 l 73 667 l 261 667 l 401 237 l 538 667 l 727 667 z"},"g":{"x_min":0,"x_max":518,"ha":518,"o":"m 517 587 l 517 502 l 482 502 q 460 502 443 497 q 426 491 410 462 q 469 414 469 355 q 469 290 414 247 q 359 204 269 204 q 229 204 177 217 q 143 201 143 168 q 143 150 160 135 q 176 120 210 120 l 356 120 q 432 120 474 81 q 517 42 517 -15 q 517 -85 452 -131 q 388 -177 261 -177 q 22 -177 22 -43 q 22 22 94 57 q 48 96 48 138 q 48 203 126 241 q 58 282 58 355 q 58 417 108 460 q 159 503 261 503 q 308 503 356 493 q 379 587 475 587 z m 264 270 q 354 270 354 355 q 354 388 332 411 q 309 433 266 433 q 222 433 198 410 q 173 386 173 351 q 173 315 197 292 q 221 270 264 270 z m 142 27 q 118 5 118 -16 q 118 -49 158 -75 q 198 -101 285 -101 q 414 -101 414 -35 q 414 -10 391 2 q 369 15 340 15 l 222 15 q 188 15 142 27 z"},"j":{"x_min":0,"x_max":245,"ha":245,"o":"m 178 551 l 66 551 l 66 667 l 178 667 z m 178 493 l 178 8 q 178 -177 8 -177 q -18 -177 -49 -171 l -49 -77 q -28 -79 -13 -79 q 33 -79 50 -62 q 66 -44 66 8 l 66 493 z"},"i":{"x_min":0,"x_max":245,"ha":245,"o":"m 178 551 l 66 551 l 66 667 l 178 667 z m 178 0 l 66 0 l 66 493 l 178 493 z"},"y":{"x_min":0,"x_max":442,"ha":442,"o":"m 435 493 l 243 -68 q 226 -120 195 -149 q 165 -177 109 -177 q 87 -177 45 -174 l 45 -85 l 98 -86 q 133 -86 150 -75 q 167 -63 177 -34 q 187 -5 187 0 q 187 3 176 30 l 7 493 l 124 493 l 243 168 l 346 493 z"},"@":{"x_min":0,"x_max":717,"ha":717,"o":"m 536 508 l 509 281 q 506 257 506 235 q 506 202 530 202 q 567 202 602 254 q 636 305 636 378 q 636 484 560 551 q 483 617 375 617 q 255 617 174 535 q 92 453 92 333 q 92 220 169 137 q 245 55 383 55 q 491 55 603 112 l 631 46 q 512 -15 383 -15 q 213 -15 113 88 q 12 190 12 333 q 12 482 118 582 q 223 682 373 682 q 513 682 609 596 q 705 510 705 378 q 705 283 651 209 q 597 134 520 134 q 460 134 437 185 q 395 132 334 132 q 272 132 228 184 q 184 236 184 320 q 184 407 234 462 q 284 516 353 516 q 419 516 448 474 l 452 508 z m 341 212 q 380 212 411 250 q 443 288 443 348 q 443 382 419 409 q 395 437 359 437 q 321 437 296 403 q 271 370 271 316 q 271 271 291 241 q 310 212 341 212 z"},".":{"x_min":0,"x_max":241,"ha":241,"o":"m 181 128 l 181 0 l 60 0 l 60 128 z"},"p":{"x_min":0,"x_max":539,"ha":539,"o":"m 180 -167 l 67 -167 l 67 493 l 173 493 l 173 407 q 225 503 324 503 q 406 503 455 432 q 504 361 504 250 q 504 145 457 67 q 411 -10 318 -10 q 223 -10 180 69 z m 180 202 q 180 148 212 113 q 244 78 283 78 q 336 78 361 124 q 386 171 386 243 q 386 318 361 365 q 336 412 287 412 q 242 412 211 374 q 180 335 180 272 z"},"X":{"x_min":0,"x_max":566,"ha":566,"o":"m 561 0 l 421 0 l 273 263 l 117 0 l 5 0 l 216 347 l 35 667 l 175 667 l 298 445 l 428 667 l 541 667 l 355 362 z"},"*":{"x_min":0,"x_max":586,"ha":586,"o":"m 339 673 l 328 506 l 479 564 l 503 476 l 349 442 l 448 319 l 371 268 l 293 402 l 216 268 l 139 319 l 238 442 l 83 476 l 107 564 l 259 506 l 248 673 z"},"Y":{"x_min":0,"x_max":543,"ha":543,"o":"m 341 0 l 214 0 l 214 281 l -13 667 l 132 667 l 291 392 l 442 667 l 557 667 l 341 281 z"},"c":{"x_min":0,"x_max":466,"ha":466,"o":"m 352 181 l 447 171 q 429 79 375 34 q 322 -10 247 -10 q 145 -10 90 64 q 35 139 35 247 q 35 358 95 431 q 155 503 255 503 q 417 503 447 333 l 352 320 q 339 412 261 412 q 205 412 179 363 q 153 313 153 243 q 153 168 180 127 q 207 87 254 87 q 328 87 352 181 z"},"!":{"x_min":0,"x_max":275,"ha":275,"o":"m 213 667 l 164 202 l 113 202 l 66 667 z m 198 122 l 198 0 l 77 0 l 77 122 z"},"/":{"x_min":0,"x_max":479,"ha":479,"o":"m 449 667 l 13 -167 l -57 -167 l 377 667 z"},"[":{"x_min":0,"x_max":293,"ha":293,"o":"m 235 586 l 154 586 l 154 -86 l 235 -86 l 235 -167 l 67 -167 l 67 667 l 235 667 z"},"6":{"x_min":0,"x_max":586,"ha":586,"o":"m 531 515 l 429 495 q 401 589 312 589 q 227 589 193 515 q 159 442 159 360 q 159 344 160 328 q 209 428 332 428 q 426 428 490 368 q 553 308 553 217 q 553 120 485 55 q 417 -10 314 -10 q 186 -10 113 80 q 39 171 39 329 q 39 483 111 580 q 183 677 304 677 q 486 677 531 515 z m 310 78 q 364 78 401 111 q 438 143 438 210 q 438 255 403 295 q 368 334 306 334 q 249 334 214 297 q 180 259 180 205 q 180 149 215 114 q 251 78 310 78 z"},"r":{"x_min":0,"x_max":332,"ha":332,"o":"m 178 0 l 67 0 l 67 493 l 167 493 l 167 375 q 189 444 227 476 q 264 508 304 508 q 309 508 318 507 l 318 388 q 233 388 206 333 q 178 279 178 229 z"},"2":{"x_min":0,"x_max":586,"ha":586,"o":"m 533 104 l 533 0 l 42 0 l 42 117 l 246 252 q 341 316 374 365 q 407 414 407 455 q 407 504 374 538 q 341 572 289 572 q 175 572 158 433 l 42 461 q 55 550 121 614 q 187 677 293 677 q 403 677 469 614 q 535 551 535 455 q 535 369 477 302 q 418 235 186 104 z"},"{":{"x_min":0,"x_max":293,"ha":293,"o":"m 105 250 q 166 220 166 134 l 166 -11 q 166 -67 187 -79 q 208 -91 263 -91 l 263 -166 l 219 -167 q 144 -167 110 -135 q 76 -103 76 -26 l 76 129 q 76 177 60 195 q 43 212 20 217 l 20 288 q 76 300 76 370 l 76 533 q 76 604 110 636 q 145 667 222 667 q 235 667 263 666 l 263 591 q 201 591 183 576 q 166 560 166 513 l 166 364 q 166 334 156 302 q 147 271 105 250 z"},"9":{"x_min":0,"x_max":586,"ha":586,"o":"m 59 121 l 160 149 q 198 80 272 80 q 348 80 388 150 q 429 220 430 345 q 394 277 349 258 q 304 239 255 239 q 162 239 99 298 q 36 356 36 453 q 36 549 101 613 q 166 677 274 677 q 396 677 471 593 q 546 508 546 352 q 546 192 474 91 q 401 -10 270 -10 q 186 -10 131 29 q 77 68 59 121 z m 277 336 q 330 336 369 370 q 409 404 409 469 q 409 513 375 550 q 340 586 279 586 q 222 586 186 550 q 150 513 150 460 q 150 413 183 375 q 217 336 277 336 z"}," ":{"x_min":0,"x_max":250,"ha":250,"o":""},"I":{"x_min":0,"x_max":267,"ha":267,"o":"m 193 0 l 73 0 l 73 667 l 193 667 z"},"H":{"x_min":0,"x_max":641,"ha":641,"o":"m 568 0 l 448 0 l 448 290 l 193 290 l 193 0 l 73 0 l 73 667 l 193 667 l 193 393 l 448 393 l 448 667 l 568 667 z"},"4":{"x_min":0,"x_max":586,"ha":586,"o":"m 453 0 l 330 0 l 330 151 l 34 151 l 34 239 l 330 680 l 453 680 l 453 254 l 553 254 l 553 151 l 453 151 z m 338 555 l 149 254 l 330 254 l 330 438 q 330 467 333 491 z"},"~":{"x_min":0,"x_max":586,"ha":586,"o":"m 114 241 l 51 282 q 82 358 116 386 q 151 414 198 414 q 232 414 304 386 q 370 360 394 360 q 440 360 471 416 l 536 378 q 480 250 380 250 q 352 250 260 286 q 210 305 190 305 q 144 305 114 241 z"},"D":{"x_min":0,"x_max":655,"ha":655,"o":"m 70 0 l 70 667 l 315 667 q 452 667 534 570 q 617 474 617 332 q 617 190 532 95 q 447 0 289 0 z m 193 98 l 293 98 q 374 98 430 159 q 486 219 486 339 q 486 437 437 504 q 388 572 308 572 l 193 572 z"},"^":{"x_min":0,"x_max":500,"ha":500,"o":"m 130 343 l 11 343 l 176 670 l 325 670 l 490 343 l 371 343 l 250 580 z"},"0":{"x_min":0,"x_max":586,"ha":586,"o":"m 292 -10 q 169 -10 103 85 q 37 180 37 326 q 37 484 106 581 q 176 677 293 677 q 377 677 436 632 q 494 586 523 506 q 551 426 551 355 q 551 238 524 162 q 498 87 439 38 q 380 -10 292 -10 z m 292 84 q 342 84 374 115 q 405 146 416 203 q 427 259 427 358 q 427 440 400 514 q 372 587 294 587 q 158 587 158 336 q 158 223 187 153 q 216 84 292 84 z"},"F":{"x_min":0,"x_max":508,"ha":508,"o":"m 197 0 l 73 0 l 73 667 l 495 667 l 495 563 l 197 563 l 197 381 l 431 381 l 431 281 l 197 281 z"},"`":{"x_min":0,"x_max":500,"ha":500,"o":"m 137 726 l 329 619 l 308 567 l 104 653 z"},"k":{"x_min":0,"x_max":532,"ha":532,"o":"m 526 0 l 409 0 l 283 253 l 173 130 l 173 0 l 67 0 l 67 667 l 173 667 l 173 253 q 188 271 196 281 l 391 493 l 511 493 l 362 330 z"},"u":{"x_min":0,"x_max":540,"ha":540,"o":"m 473 0 l 369 0 l 369 106 q 327 -10 213 -10 q 146 -10 106 31 q 67 73 67 148 l 67 493 l 181 493 l 181 172 q 181 119 204 102 q 228 85 250 85 q 286 85 324 118 q 361 150 361 256 l 361 493 l 473 493 z"},"]":{"x_min":0,"x_max":293,"ha":293,"o":"m 58 -86 l 140 -86 l 140 586 l 58 586 l 58 667 l 226 667 l 226 -167 l 58 -167 z"},"U":{"x_min":0,"x_max":595,"ha":595,"o":"m 531 667 l 531 238 q 531 151 511 104 q 492 58 436 24 q 380 -10 299 -10 q 218 -10 165 19 q 113 48 90 99 q 67 150 67 229 l 67 667 l 189 667 l 189 238 q 189 150 226 123 q 263 95 312 95 q 368 95 402 125 q 436 154 436 238 l 436 667 z"},"o":{"x_min":0,"x_max":529,"ha":529,"o":"m 260 -10 q 150 -10 93 68 q 35 147 35 249 q 35 358 99 431 q 163 503 267 503 q 366 503 430 433 q 494 362 494 249 q 494 132 427 61 q 361 -10 260 -10 z m 264 82 q 376 82 376 249 q 376 325 349 368 q 322 412 267 412 q 209 412 181 367 q 153 322 153 247 q 153 167 183 124 q 212 82 264 82 z"},"N":{"x_min":0,"x_max":650,"ha":650,"o":"m 577 0 l 460 0 l 207 426 q 201 436 188 458 q 182 467 170 488 l 170 0 l 73 0 l 73 667 l 206 667 l 439 274 q 442 269 482 202 l 482 667 l 577 667 z"},"+":{"x_min":0,"x_max":586,"ha":586,"o":"m 541 383 l 541 290 l 340 290 l 340 83 l 247 83 l 247 290 l 46 290 l 46 383 l 247 383 l 247 591 l 340 591 l 340 383 z"},"G":{"x_min":0,"x_max":642,"ha":642,"o":"m 579 341 l 579 0 l 526 0 l 489 90 q 431 -10 309 -10 q 173 -10 106 93 q 39 197 39 333 q 39 477 114 577 q 188 677 323 677 q 424 677 489 618 q 554 560 571 473 l 466 455 q 437 577 326 577 q 255 577 211 519 q 166 461 166 342 q 166 89 324 89 q 386 89 426 132 q 466 174 466 244 l 329 244 l 329 341 z"},"q":{"x_min":0,"x_max":542,"ha":542,"o":"m 475 -167 l 359 -167 l 359 87 q 320 -10 222 -10 q 128 -10 82 66 q 35 143 35 245 q 35 359 90 431 q 145 503 241 503 q 332 503 386 424 l 416 493 l 475 493 z m 359 290 q 359 338 337 375 q 315 412 265 412 q 210 412 182 367 q 153 323 153 246 q 153 167 182 123 q 212 79 257 79 q 299 79 329 116 q 359 153 359 218 z"},"d":{"x_min":0,"x_max":539,"ha":539,"o":"m 472 0 l 368 0 l 368 100 q 325 -10 223 -10 q 132 -10 83 65 q 35 141 35 253 q 35 358 85 436 q 136 513 229 513 q 324 513 361 426 l 361 667 l 472 667 z m 361 291 q 361 351 332 385 q 304 418 258 418 q 209 418 181 375 q 153 332 153 247 q 153 82 257 82 q 298 82 329 117 q 361 152 361 208 z"},"1":{"x_min":0,"x_max":586,"ha":586,"o":"m 579 0 l 68 0 l 68 98 l 269 98 l 269 519 q 169 432 87 399 l 87 519 q 170 551 191 564 q 212 578 253 614 q 293 650 310 680 l 390 680 l 390 98 l 579 98 z"},"5":{"x_min":0,"x_max":586,"ha":586,"o":"m 106 667 l 521 667 l 510 563 l 194 563 l 175 370 q 235 447 332 447 q 428 447 494 380 q 561 314 561 223 q 561 127 491 59 q 422 -10 301 -10 q 205 -10 133 34 q 61 79 39 172 l 154 189 q 188 87 294 87 q 360 87 395 127 q 431 167 431 223 q 431 278 396 317 q 360 355 304 355 q 219 355 175 277 l 68 298 z"}}}
